<svg width="1494" height="690" viewBox="0 0 1494 690" fill="none" xmlns="http://www.w3.org/2000/svg">
<path opacity="0.4" d="M-68.1489 118.122C-23.4636 128.413 10.0155 149.959 32.526 119.819M41.394 118.122C72.444 98.8222 98.8603 73.2167 129.416 47.0725M129.425 43.3953C149.652 25.176 157.958 6.37621 173.59 2.35614M177.686 7.30555C217.704 -3.97394 275 10.8607 305.168 48.1566M297.419 50.6132C302.166 65.4123 316.673 89.4531 319.452 112.379M311.43 120.67C312.289 140.874 300.046 170.141 300.117 191.132M299.966 193.132C283.977 219.443 319.88 264.472 358.611 273.79M354.172 278.049C377.503 281.249 418.903 290.143 441.602 290.905M434.984 282.437C465.576 266.021 491.847 245.675 498.622 232.574M503.059 230.213C518.898 219.198 526.513 206.164 524.781 197.477M531.79 194.548C539.625 178.232 544.981 165.671 550.795 151.435M553.443 153.787C559.45 125.531 580.023 104.238 603.086 86.2135M598.732 89.5335C625.131 71.674 671.647 47.5352 707.354 21.0622M697.519 27.8272C734.657 21.017 783.953 -5.83636 819.452 25.6631M827.725 16.2218C860.102 28.3565 914.073 59.1831 918.726 97.1742M923.965 106.8C937.814 130.078 932.567 149.764 925.634 184.483M927.927 176.998C931.642 205.666 933.501 225.662 928.957 245.202M923.965 235.308C917.236 258.352 908.775 294.597 871.071 304.055M879.525 309.185C848.017 331.04 801.06 361.915 817.021 425.377M813.855 416.181C817.491 481.039 905.952 489.283 937.326 471.938M944.345 479.869C985.837 486.753 1004.89 464.783 1053.5 454.586M1044.97 460.904C1080.36 445.022 1135.28 464.961 1170.73 474.293M1165.69 469.112C1198.61 482.444 1213.43 500.3 1227.83 541.188M1225.84 533.366C1236.16 562.735 1198.53 584.37 1191.46 604.203M1187.21 597.62C1178.38 599.922 1159.44 615.706 1151.58 622.932M1143.05 632.861C1138.01 655.114 1145.77 668.794 1143.66 685.016M1150.13 676.593C1195.57 728.4 1263.53 715.176 1338.81 702.887M1331 709.144C1360.6 718.21 1403.18 701.692 1451.18 730.178M1448.47 720.608C1453.26 732.367 1481.9 741.82 1491.82 735.918" stroke="#AB9995" stroke-width="3" stroke-linecap="round" stroke-dasharray="9 9"/>
</svg>
