<svg width="486" height="335" viewBox="0 0 486 335" fill="none" xmlns="http://www.w3.org/2000/svg">
    <path opacity="0.6" d="M-47.769 48.4432C-21.8654 67.4578 14.6773 72.5493 46.8918 64.8229M43.9413 68.8233C63.3154 67.3536 79.4093 66.896 111.961 59.5581M107.629 56.6519C120.643 58.1936 140.164 28.0438 170.849 37.0365M168.911 29.3369C193.611 22.53 222.119 9.45926 246.67 19.1521M239.533 10.7967C270.02 -2.74578 318.145 3.27805 359.686 5.75284M358.7 5.13559C403.567 13.3264 437.698 41.9135 463.09 82.4142M455.223 75.1921C471.523 101.334 468.442 111.847 484.138 146.235M478.999 138.455C480.651 166.318 472.055 173.814 451.437 210.751M450.411 201.294C441.042 231.332 392.666 243.821 364.708 258.581M371.155 266.397C338.972 277.06 289.667 274.303 260.105 308.716M256.658 309.846C230.657 328.34 221.951 363.847 226.603 380.619M224.744 389.2C224.857 389.75 224.974 389.462 224.639 390" stroke="#AB9995" stroke-width="3" stroke-linecap="round" stroke-dasharray="9 9"/>
    </svg>
    