<svg width="421" height="391" viewBox="0 0 421 391" fill="none" xmlns="http://www.w3.org/2000/svg">
<path d="M198.012 384.566C87.1588 391.13 15.1651 320.066 5.71329 252.446M198.012 384.566V384.566ZM18.2306 256.134C21.2455 220.748 6.10689 174.755 2 136.147M10.925 136.493C5.8749 61.2797 89.2609 11.8387 201.754 4.09589M195.534 2.29694C197.619 6.21794 220.24 11.5628 227.269 2M223.024 7.63276C322.854 7.71346 405.547 66.2728 410.706 134.365M419 138.146C418.457 173.222 407.723 209.86 412.383 251.473M410.11 255.706C413.697 326.147 323.377 381.731 224.269 380.814M226.517 387.457C217.375 387.057 202.923 383.221 190.279 389" stroke="#AB9995" stroke-width="3" stroke-linecap="round" stroke-dasharray="9 9"/>
</svg>
