<svg width="421" height="660" viewBox="0 0 421 660" fill="none" xmlns="http://www.w3.org/2000/svg">
    <path opacity="0.6" d="M177.895 -27.5789C166.603 62.1451 101.809 113.089 34.0392 176.088M43.0186 169.712C25.0985 194.926 18.2966 205.082 12.3409 229.795M5.9382 233.399C-0.271982 262.076 10.0756 275.507 1.66943 298.704M7.77807 301.05C26.5619 346.882 55.8046 390.548 108.687 391.9M112.651 392.76C143.079 396.18 157.199 390.456 175.054 372.005M173.366 373.795C202.694 359.268 215 357.687 243.131 353.204M246.536 352C275.155 351.784 322.996 385.183 331.987 408.978M334.708 411.159C346.059 451.899 336.33 478.334 325.416 522.302M334.567 522.683C333.057 539.541 321.623 571.841 353.917 588.973M344.615 596.561C361.846 626.23 387.515 649.036 435.42 653.278M432.646 657.701C475.772 661.913 504.555 621.76 515.427 586.352" stroke="#AB9995" stroke-width="3" stroke-linecap="round" stroke-dasharray="9 9"/>
    </svg>
    