<svg width="105" height="100" viewBox="0 0 105 100" fill="none" xmlns="http://www.w3.org/2000/svg">
<path d="M102.806 52.1191C102.981 51.8095 103.452 52.0283 103.327 52.3614L96.8234 69.8162C96.7839 69.9222 96.7548 70.0317 96.7364 70.1433L96.3529 72.4731C94.9113 81.2305 89.1143 88.6534 80.967 92.1738L68.0297 97.7641C61.3298 99.878 54.1682 100.052 47.3734 98.2664L40.9972 96.5906C37.6845 95.7199 34.4524 94.5673 31.3362 93.1454L14.4148 85.4239C12.8985 84.732 11.4577 83.8854 10.1152 82.8976C4.06051 78.4425 0.417721 71.4284 0.255445 63.913L0 52.0827L0.156734 50.6402C1.57647 37.5737 7.5163 25.4137 16.9497 16.2617L23.1041 10.3518C26.9463 6.66235 31.5776 3.89558 36.6475 2.2611L38.8044 1.56572C47.7413 -1.3155 57.5076 0.0853572 65.2743 5.36254C67.4864 6.86558 69.8868 8.07079 72.4136 8.94711L77.1751 10.5985C82.3472 12.3922 87.3505 14.7255 91.5152 18.2785C96.5247 22.5521 102.821 29.1 104.333 36.0087C105.943 43.3641 104.317 48.9554 102.842 52.1501C102.693 52.4717 102.632 52.4276 102.806 52.1191Z" fill="#F9CD02"/>
</svg>
